<svg width="32" height="32" viewBox="0 0 32 32" fill="none" xmlns="http://www.w3.org/2000/svg">
  <rect width="32" height="32" rx="6" fill="#1E7A7A"/>
  <path d="M16 10C18.2091 10 20 11.7909 20 14C20 16.2091 18.2091 18 16 18C13.7909 18 12 16.2091 12 14C12 11.7909 13.7909 10 16 10Z" fill="white"/>
  <path d="M8 8C8 6.89543 8.89543 6 10 6H22C23.1046 6 24 6.89543 24 8V24C24 25.1046 23.1046 26 22 26H10C8.89543 26 8 25.1046 8 24V8Z" stroke="white" stroke-width="2" fill="none"/>
  <circle cx="16" cy="14" r="3" fill="white"/>
  <path d="M20 10L22 8" stroke="white" stroke-width="2" stroke-linecap="round"/>
</svg>
